<svg xmlns="http://www.w3.org/2000/svg" viewBox="0 0 256 256" role="img" aria-label="Mail favicon">
  <defs>
    <linearGradient id="screen" x1="0" y1="0" x2="1" y2="1">
      <stop offset="0%" stop-color="#0a1c0a" />
      <stop offset="100%" stop-color="#030704" />
    </linearGradient>
    <linearGradient id="frame" x1="0" y1="0" x2="1" y2="1">
      <stop offset="0%" stop-color="#bbf7d0" />
      <stop offset="100%" stop-color="#16a34a" />
    </linearGradient>
    <filter id="glow" x="-20%" y="-20%" width="140%" height="140%">
      <feDropShadow dx="0" dy="0" stdDeviation="6" flood-color="#22c55e" flood-opacity="0.45" />
    </filter>
  </defs>

  <rect width="256" height="256" fill="#030704" />
  <rect x="24" y="24" width="208" height="208" rx="20" fill="url(#screen)" stroke="url(#frame)" stroke-width="10" />

  <path
    d="M64 82h128c10 0 18 8 18 18v56c0 10-8 18-18 18H64c-10 0-18-8-18-18v-56c0-10 8-18 18-18Z"
    fill="none"
    stroke="#e0ece0"
    stroke-width="12"
    stroke-linejoin="round"
    filter="url(#glow)"
  />
  <path
    d="m52 96 71 53a9 9 0 0 0 10 0l71-53"
    fill="none"
    stroke="#80b880"
    stroke-width="12"
    stroke-linecap="round"
    stroke-linejoin="round"
  />
  <path
    d="m52 160 52-40m100 40-52-40"
    fill="none"
    stroke="#607060"
    stroke-width="10"
    stroke-linecap="round"
    stroke-linejoin="round"
  />

  <circle cx="188" cy="68" r="16" fill="#22c55e" />
  <circle cx="188" cy="68" r="7" fill="#dcfce7" opacity="0.9" />
</svg>
